<?xml version="1.0" encoding="UTF-8" standalone="no"?>
<!-- Created with Inkscape (http://www.inkscape.org/) -->

<svg
   xmlns:dc="http://purl.org/dc/elements/1.1/"
   xmlns:cc="http://creativecommons.org/ns#"
   xmlns:rdf="http://www.w3.org/1999/02/22-rdf-syntax-ns#"
   xmlns:svg="http://www.w3.org/2000/svg"
   xmlns="http://www.w3.org/2000/svg"
   xmlns:sodipodi="http://sodipodi.sourceforge.net/DTD/sodipodi-0.dtd"
   xmlns:inkscape="http://www.inkscape.org/namespaces/inkscape"
   id="svg2"
   version="1.1"
   inkscape:version="0.48.2 r9819"
   width="900"
   height="700"
   xml:space="preserve"
   sodipodi:docname="windmill-required-layers-only.svg"
   inkscape:export-filename="D:\Clara's\Hell - Dad logo\windmill circle - dad mods lucida sans CAPS transparent.png"
   inkscape:export-xdpi="180"
   inkscape:export-ydpi="180"><metadata
     id="metadata8"><rdf:RDF><cc:Work
         rdf:about=""><dc:format>image/svg+xml</dc:format><dc:type
           rdf:resource="http://purl.org/dc/dcmitype/StillImage" /><dc:title></dc:title></cc:Work></rdf:RDF></metadata><defs
     id="defs6" /><sodipodi:namedview
     pagecolor="#ffffff"
     bordercolor="#666666"
     borderopacity="1"
     objecttolerance="10"
     gridtolerance="10"
     guidetolerance="10"
     inkscape:pageopacity="0"
     inkscape:pageshadow="2"
     inkscape:window-width="1280"
     inkscape:window-height="709"
     id="namedview4"
     showgrid="false"
     inkscape:zoom="0.70710678"
     inkscape:cx="346.04075"
     inkscape:cy="354.94418"
     inkscape:window-x="0"
     inkscape:window-y="0"
     inkscape:window-maximized="0"
     inkscape:current-layer="layer5"
     fit-margin-top="-0.6"
     fit-margin-left="0"
     fit-margin-right="0"
     fit-margin-bottom="0" /><g
     inkscape:groupmode="layer"
     id="layer8"
     inkscape:label="circle background"
     transform="translate(128.25536,-93.674338)"><path
       style="fill:#029b78;fill-opacity:1;stroke:#000000;stroke-width:3.25960469;stroke-linecap:butt;stroke-linejoin:round;stroke-miterlimit:4;stroke-opacity:0;stroke-dasharray:none;stroke-dashoffset:0"
       clip-path="none"
       d="m 318.62636,106.36615 c -142.17202,0 -263.631967,88.70807 -312.0624964,213.78125 33.7609094,6.52376 29.0937494,38.875 29.0937494,38.875 0,0 15.4396,-37.32705 66.906247,-11.59375 14.0257,7.01285 42.66357,42.22642 -20.749997,58.65625 -20.61342,5.34072 -58.54015,7.64887 -96.625,8.0625 -0.69758,8.82077 -1.0625,17.74993 -1.0625,26.75 0,66.60477 19.4502806,128.65083 53,180.78125 29.07188,5.43484 57.0625,-1.1875 57.0625,-1.1875 0,0 12.338047,0.46731 34.937497,-12.03125 33.10957,-18.31115 101.12057,-42.96243 107.375,-34.90625 32.87457,12.58305 53.82428,-11.2986 66.71875,-4.03125 34.51674,15.77655 13.85797,-6.5173 47.9375,12.0625 48.64241,12.57364 57.64208,76.64826 136.3125,57.5 31.13529,-16.51593 90.43458,-56.5761 126.34375,-40.71875 25.09504,-46.93255 39.34375,-100.52739 39.34375,-157.46875 0,-9.89992 -0.40748,-19.69355 -1.25,-29.375 -5.37147,0.6579 -11.4375,1.04086 -18.28125,1.09375 -234.74739,1.8142 -228.97672,-27.89044 -226.6875,-42 3.83247,-23.62133 50.27209,-27.47878 57.5,-7.75 9.34824,25.51606 29.4496,-56.61566 73.375,6.75 0,0 1.49117,-45.99363 33.125,-47.5 61.41574,-2.92454 54.25,52.03125 54.25,52.03125 0,0 7.86155,-7.69499 18.78125,-11.375 C 608.7846,215.70104 476.47669,106.36615 318.62636,106.36615 z"
       id="path6788"
       inkscape:connector-curvature="0" /></g><g
     inkscape:groupmode="layer"
     id="layer4"
     inkscape:label="hills"
     style="display:inline"
     transform="translate(128.25536,-93.674338)" /><g
     inkscape:groupmode="layer"
     id="layer5"
     inkscape:label="text"
     transform="translate(128.25536,-93.674338)"
     style="display:inline">




<g
   id="g4114"
   transform="translate(-59.244427,-174.56155)"
   style="fill:#029b78;fill-opacity:1"><text
   sodipodi:linespacing="125%"
   id="text3965"
   y="915.9986"
   x="-34.052071"
   style="font-size:41.19555283px;font-style:normal;font-variant:normal;font-weight:bold;font-stretch:normal;line-height:125%;letter-spacing:0px;word-spacing:0px;fill:#029b78;fill-opacity:1;stroke:none;display:inline;font-family:Goudy Old Style;-inkscape-font-specification:Microsoft YaHei Bold"
   xml:space="preserve"><tspan
     style="font-size:60px;font-style:normal;font-variant:normal;font-weight:600;font-stretch:normal;fill:#029b78;fill-opacity:1;font-family:Lucida Sans;-inkscape-font-specification:Lucida Sans Semi-Bold"
     y="915.9986"
     x="-34.052071"
     id="tspan3967"
     sodipodi:role="line">ROUNDHILL BOOKKEEPING</tspan></text>








<rect
   y="936.12415"
   x="-61.010933"
   height="8.9203405"
   width="885.05981"
   id="rect3022"
   style="fill:#029b78;fill-opacity:1" /><rect
   y="951.31555"
   x="-39.486389"
   height="8.9203405"
   width="842.24396"
   id="rect3022-1"
   style="fill:#029b78;fill-opacity:1" /></g></g><g
     inkscape:groupmode="layer"
     id="layer1"
     inkscape:label="windmill"
     style="display:inline"
     transform="translate(128.25536,-93.674338)"><g
       id="g3076"
       style="stroke:#029b78;stroke-opacity:1"
       transform="translate(24.049559,121.59818)"><g
         id="g3057"
         style="stroke:#029b78;stroke-opacity:1"><path
           style="fill:#ffffff;stroke:#029b78;stroke-opacity:1;display:inline"
           d="m 258.28125,211 c -16.11173,-0.27842 -32.66196,7.86202 -39.65625,22.96875 -6.83718,35.32551 -9.08541,82.12437 -14.1875,117.71875 l -9.0625,77.5625 -3.5625,4.3125 c -6.12962,3.00924 -28.70629,10.50396 -35.40625,15.375 0,0 -2.38755,38.58144 -2.78125,40.15625 65.33186,16.18932 145.7834,22.61918 217.40625,4.5 L 369.4375,449.125 c 0.561,-1.29213 -33.40397,-13.53491 -41.25,-16.28125 L 324.5,428.46875 305.59375,320.1875 C 305.55765,320.87387 296.5625,263.5 296.5625,263.5 l -3.53125,-31.09375 C 286.36613,218.06615 272.49748,211.24566 258.28125,211 z M 231.25,264.5625 c 1.72243,0.0296 3.32495,1.20958 4.75,3.40625 l -0.1875,11.8125 -10.0625,0 0,-11.8125 c 1.92149,-2.31519 3.77757,-3.43588 5.5,-3.40625 z m 3.71875,80.84375 0,16.125 -10.25,-0.375 0.78125,-11.03125 9.46875,-4.71875 z m -11.4375,39.5625 11.03125,0 0.40625,36.25 -12.59375,0 1.15625,-36.25 z"
           id="path3007-7"
           inkscape:connector-curvature="0"
           transform="translate(-5.9999994,0.03517294)" /><path
           style="fill:none;stroke:#029b78;stroke-opacity:1;display:inline"
           d="m 185.70146,433.60922 c 51.80016,-2.22901 81.53465,-1.91578 136.4776,-0.7365 21.13198,7.21273 41.57469,15.26541 41.27142,16.24383 0,0 -59.4332,2.47541 -108.02397,1.08127 -50.71285,-1.45502 -107.28764,0.2964 -104.95385,-1.31298 11.97875,-8.2605 31.14386,-13.14071 35.2288,-15.27562 z"
           id="path8749"
           inkscape:connector-curvature="0"
           sodipodi:nodetypes="cccssc" /></g><g
         id="g3048"
         style="fill:#333333;fill-opacity:1;stroke:#029b78;stroke-opacity:1"><g
           id="g8799"
           style="fill:#333333;fill-opacity:1;stroke:#029b78;stroke-opacity:1"><path
             sodipodi:nodetypes="cccccccccccccccccccccc"
             inkscape:connector-curvature="0"
             id="path3007-7-4"
             d="M 359.97572,65.159357 C 318.4598,108.4916 274.56145,154.25964 234.35072,196.31561 l -86.45968,-84.20137 -12.73373,12.50558 -7.14116,-7.21326 -9.5751,9.37484 88.37842,86.40921 -111.689292,123.13035 10.518372,10.33816 -7.77599,8.58831 8.54683,8.73082 113.00543,-123.23721 c 78.02846,74.14182 91.81041,86.70359 113.03924,107.19373 11.812,-12.24496 -0.1828,0.19832 11.80776,-12.04249 12.34842,11.58498 5.90359,5.55457 11.24202,10.62979 l 10.36813,-10.89396 -75.1875,-72.4375 c -36.15116,-33.89339 -0.0413,0.0243 -35.05445,-33.85867 L 378.79029,97.243668 363.13481,82.878817 l 7.11758,-7.346941 z"
             style="fill:#ffffff;fill-opacity:1;stroke:#029b78;stroke-opacity:1;display:inline" /><path
             transform="translate(-5.9999994,0.03517294)"
             inkscape:connector-curvature="0"
             id="path8795"
             d="M 372.8364,72.08478 106.98537,358.37275"
             style="fill:#333333;fill-opacity:1;stroke:#029b78;stroke-opacity:1"
             sodipodi:nodetypes="cc" /><path
             transform="translate(-5.9999994,0.03517294)"
             inkscape:connector-curvature="0"
             id="path8797"
             d="M 129.92187,120.1165 364.9222,342.50216"
             style="fill:#333333;fill-opacity:1;stroke:#029b78;stroke-opacity:1"
             sodipodi:nodetypes="cc" /></g></g></g></g></svg>